<?xml version="1.0" encoding="UTF-8" standalone="no"?>
<svg width="317px" height="44px" viewBox="0 0 317 44" version="1.1" xmlns="http://www.w3.org/2000/svg" xmlns:xlink="http://www.w3.org/1999/xlink" xmlns:sketch="http://www.bohemiancoding.com/sketch/ns">
    <!-- Generator: Sketch 3.4.1 (15681) - http://www.bohemiancoding.com/sketch -->
    <title>nihilists</title>
    <desc>Created with Sketch.</desc>
    <defs></defs>
    <g id="Page-1" stroke="none" stroke-width="1" fill="none" fill-rule="evenodd" sketch:type="MSPage">
        <g id="nihilists" sketch:type="MSLayerGroup">
            <rect id="Rectangle-5" fill="#232323" sketch:type="MSShapeGroup" x="0" y="0" width="44" height="44"></rect>
            <path d="M85.966,35.168 L86.074,35.168 L86.074,2.768 L89.962,2.768 L89.962,41 L85.102,41 L62.314,8.276 L62.206,8.276 L62.206,41 L58.318,41 L58.318,2.768 L63.178,2.768 L85.966,35.168 Z M106.468,41 L102.58,41 L102.58,2.768 L106.468,2.768 L106.468,41 Z M119.086,2.768 L122.974,2.768 L122.974,19.346 L143.818,19.346 L143.818,2.768 L147.706,2.768 L147.706,41 L143.818,41 L143.818,22.91 L122.974,22.91 L122.974,41 L119.086,41 L119.086,2.768 Z M164.212,41 L160.324,41 L160.324,2.768 L164.212,2.768 L164.212,41 Z M175.858,2.768 L184.282,2.768 L184.282,33.224 L199.888,33.224 L199.888,41 L175.858,41 L175.858,2.768 Z M206.674,2.768 L215.098,2.768 L215.098,41 L206.674,41 L206.674,2.768 Z M243.916,12.11 C243.231997,11.2459957 242.305006,10.6070021 241.135,10.193 C239.964994,9.77899793 238.858005,9.572 237.814,9.572 C237.201997,9.572 236.572003,9.64399928 235.924,9.788 C235.275997,9.93200072 234.664003,10.1569985 234.088,10.463 C233.511997,10.7690015 233.044002,11.1739975 232.684,11.678 C232.323998,12.1820025 232.144,12.7939964 232.144,13.514 C232.144,14.6660058 232.575996,15.5479969 233.44,16.16 C234.304004,16.7720031 235.392993,17.2939978 236.707,17.726 C238.021007,18.1580022 239.433992,18.5899978 240.946,19.022 C242.458008,19.4540022 243.870993,20.065996 245.185,20.858 C246.499007,21.650004 247.587996,22.7119933 248.452,24.044 C249.316004,25.3760067 249.748,27.1579888 249.748,29.39 C249.748,31.5140106 249.352004,33.3679921 248.56,34.952 C247.767996,36.5360079 246.697007,37.8499948 245.347,38.894 C243.996993,39.9380052 242.431009,40.7119975 240.649,41.216 C238.866991,41.7200025 236.98601,41.972 235.006,41.972 C232.521988,41.972 230.218011,41.5940038 228.094,40.838 C225.969989,40.0819962 223.990009,38.8580085 222.154,37.166 L228.148,30.578 C229.012004,31.7300058 230.100993,32.6209968 231.415,33.251 C232.729007,33.8810031 234.087993,34.196 235.492,34.196 C236.176003,34.196 236.868996,34.1150008 237.571,33.953 C238.273004,33.7909992 238.902997,33.5480016 239.461,33.224 C240.019003,32.8999984 240.468998,32.4860025 240.811,31.982 C241.153002,31.4779975 241.324,30.8840034 241.324,30.2 C241.324,29.0479942 240.883004,28.1390033 240.001,27.473 C239.118996,26.8069967 238.012007,26.2400023 236.68,25.772 C235.347993,25.3039977 233.908008,24.8360023 232.36,24.368 C230.811992,23.8999977 229.372007,23.270004 228.04,22.478 C226.707993,21.685996 225.601004,20.6420065 224.719,19.346 C223.836996,18.0499935 223.396,16.3400106 223.396,14.216 C223.396,12.1639897 223.800996,10.3640077 224.611,8.816 C225.421004,7.26799226 226.500993,5.97200522 227.851,4.928 C229.201007,3.88399478 230.757991,3.10100261 232.522,2.579 C234.286009,2.05699739 236.103991,1.796 237.976,1.796 C240.136011,1.796 242.22399,2.10199694 244.24,2.714 C246.25601,3.32600306 248.073992,4.3519928 249.694,5.792 L243.916,12.11 Z M265.66,10.22 L254.752,10.22 L254.752,2.768 L284.992,2.768 L284.992,10.22 L274.084,10.22 L274.084,41 L265.66,41 L265.66,10.22 Z M310.408,12.11 C309.723997,11.2459957 308.797006,10.6070021 307.627,10.193 C306.456994,9.77899793 305.350005,9.572 304.306,9.572 C303.693997,9.572 303.064003,9.64399928 302.416,9.788 C301.767997,9.93200072 301.156003,10.1569985 300.58,10.463 C300.003997,10.7690015 299.536002,11.1739975 299.176,11.678 C298.815998,12.1820025 298.636,12.7939964 298.636,13.514 C298.636,14.6660058 299.067996,15.5479969 299.932,16.16 C300.796004,16.7720031 301.884993,17.2939978 303.199,17.726 C304.513007,18.1580022 305.925992,18.5899978 307.438,19.022 C308.950008,19.4540022 310.362993,20.065996 311.677,20.858 C312.991007,21.650004 314.079996,22.7119933 314.944,24.044 C315.808004,25.3760067 316.24,27.1579888 316.24,29.39 C316.24,31.5140106 315.844004,33.3679921 315.052,34.952 C314.259996,36.5360079 313.189007,37.8499948 311.839,38.894 C310.488993,39.9380052 308.923009,40.7119975 307.141,41.216 C305.358991,41.7200025 303.47801,41.972 301.498,41.972 C299.013988,41.972 296.710011,41.5940038 294.586,40.838 C292.461989,40.0819962 290.482009,38.8580085 288.646,37.166 L294.64,30.578 C295.504004,31.7300058 296.592993,32.6209968 297.907,33.251 C299.221007,33.8810031 300.579993,34.196 301.984,34.196 C302.668003,34.196 303.360996,34.1150008 304.063,33.953 C304.765004,33.7909992 305.394997,33.5480016 305.953,33.224 C306.511003,32.8999984 306.960998,32.4860025 307.303,31.982 C307.645002,31.4779975 307.816,30.8840034 307.816,30.2 C307.816,29.0479942 307.375004,28.1390033 306.493,27.473 C305.610996,26.8069967 304.504007,26.2400023 303.172,25.772 C301.839993,25.3039977 300.400008,24.8360023 298.852,24.368 C297.303992,23.8999977 295.864007,23.270004 294.532,22.478 C293.199993,21.685996 292.093004,20.6420065 291.211,19.346 C290.328996,18.0499935 289.888,16.3400106 289.888,14.216 C289.888,12.1639897 290.292996,10.3640077 291.103,8.816 C291.913004,7.26799226 292.992993,5.97200522 294.343,4.928 C295.693007,3.88399478 297.249991,3.10100261 299.014,2.579 C300.778009,2.05699739 302.595991,1.796 304.468,1.796 C306.628011,1.796 308.71599,2.10199694 310.732,2.714 C312.74801,3.32600306 314.565992,4.3519928 316.186,5.792 L310.408,12.11 Z" id="NIHILISTS" fill="#FFFFFF" sketch:type="MSShapeGroup"></path>
        </g>
    </g>
</svg>